HIERARCHY
ROOT Hips
{
  OFFSET 279.157 85.6768 304.565
  CHANNELS 6 Xposition Yposition Zposition Zrotation Xrotation Yrotation
  JOINT LeftUpLeg
  {
    OFFSET 8.64259 1.95398 -2.38835
    CHANNELS 3 Zrotation Xrotation Yrotation
    JOINT LeftLeg
    {
      OFFSET 43.7702 0 0
      CHANNELS 3 Zrotation Xrotation Yrotation
      JOINT LeftFoot
      {
        OFFSET 40.6238 0 0
        CHANNELS 3 Zrotation Xrotation Yrotation
        JOINT LeftToeBase
        {
          OFFSET 12.7242 0 0
          CHANNELS 3 Zrotation Xrotation Yrotation
          End Site
          {
            OFFSET 0 0 0
          }
        }
      }
    }
  }
  JOINT RightUpLeg
  {
    OFFSET -8.2249 1.95398 -2.59336
    CHANNELS 3 Zrotation Xrotation Yrotation
    JOINT RightLeg
    {
      OFFSET 43.5653 0 0
      CHANNELS 3 Zrotation Xrotation Yrotation
      JOINT RightFoot
      {
        OFFSET 40.6238 0 0
        CHANNELS 3 Zrotation Xrotation Yrotation
        JOINT RightToeBase
        {
          OFFSET 12.7242 0 0
          CHANNELS 3 Zrotation Xrotation Yrotation
          End Site
          {
            OFFSET 0 0 0
          }
        }
      }
    }
  }
  JOINT Spine
  {
    OFFSET 0.165834 0.87714 6.61349
    CHANNELS 3 Zrotation Xrotation Yrotation
    JOINT Spine1
    {
      OFFSET 7.38963 1.71661e-005 0
      CHANNELS 3 Zrotation Xrotation Yrotation
      JOINT Spine2
      {
        OFFSET 11.9445 1.14441e-005 0
        CHANNELS 3 Zrotation Xrotation Yrotation
        JOINT Spine3
        {
          OFFSET 14.7254 4.19617e-005 0
          CHANNELS 3 Zrotation Xrotation Yrotation
          JOINT Spine4
          {
            OFFSET 10.9679 0 0
            CHANNELS 3 Zrotation Xrotation Yrotation
            JOINT RightShoulder
            {
              OFFSET 2.46616 -1.6653 3.69651
              CHANNELS 3 Zrotation Xrotation Yrotation
              JOINT RightArm
              {
                OFFSET 13.0012 0 0
                CHANNELS 3 Zrotation Xrotation Yrotation
                JOINT RightForeArm
                {
                  OFFSET 28.7848 1.52588e-005 0
                  CHANNELS 3 Zrotation Xrotation Yrotation
                  JOINT RightHand
                  {
                    OFFSET 26.5688 1.52588e-005 0
                    CHANNELS 3 Zrotation Xrotation Yrotation
                    End Site
                    {
                      OFFSET 0 0 0
                    }
                  }
                }
              }
            }
            JOINT LeftShoulder
            {
              OFFSET 2.38034 -1.29275 -3.7523
              CHANNELS 3 Zrotation Xrotation Yrotation
              JOINT LeftArm
              {
                OFFSET 16.3182 6.10351e-005 0
                CHANNELS 3 Zrotation Xrotation Yrotation
                JOINT LeftForeArm
                {
                  OFFSET 27.0901 0 0
                  CHANNELS 3 Zrotation Xrotation Yrotation
                  JOINT LeftHand
                  {
                    OFFSET 24.5451 1.52588e-005 0
                    CHANNELS 3 Zrotation Xrotation Yrotation
                    End Site
                    {
                      OFFSET 0 0 0
                    }
                  }
                }
              }
            }
            JOINT Neck
            {
              OFFSET 5.0226 -0.0266342 0
              CHANNELS 3 Zrotation Xrotation Yrotation
              JOINT Head
              {
                OFFSET 6.69364 2.86102e-005 0
                CHANNELS 3 Zrotation Xrotation Yrotation
                End Site
                {
                  OFFSET 0 0 0
                }
              }
            }
          }
        }
      }
    }
  }
}
MOTION
Frames:	7
Frame Time:	0.0416667
120.957 92.3202 131.185 -68.8561 -49.5807 -71.1736 -173.398 42.6647 105.76 -43.1393 28.4594 -0.877215 68.9513 7.34789 0.721409 38.4134 4.49134 4.52901 167.473 39.1787 75.4039 -53.145 -0.846273 1.77426 73.2897 -8.03839 -2.51378 25.2474 -0.13223 8.38111 0.963181 9.15166 -90.0135 8.57259 1.91604 -0.148614 -3.09698 1.90765 -0.232831 -25.6431 1.87209 0.434325 -5.63046 1.87209 0.434315 83.0808 -32.1128 -119.002 34.382 10.8559 13.5978 -37.1568 -36.0156 -61.157 -45.7069 -1.82928 -9.07834 -91.9954 -46.5197 74.8627 -2.81911 19.2112 -46.8205 39.6586 -2.71169 -84.6086 9.93128 -2.00804 -22.0212 37.1119 -1.83858 -9.20929 -7.73481 2.42438 2.33611 
118.669 90.7523 129.236 -74.4968 -45.5779 -76.2793 -171.752 40.7062 108.375 -46.3896 25.9382 -0.406669 70.2761 8.74068 0.980277 40.2433 5.28637 7.02606 167.494 41.3724 70.466 -53.8238 0.320186 1.18597 72.8562 -7.92146 -4.00242 22.9526 0.616901 7.58512 0.73873 9.27171 -90.2523 8.33427 1.36315 -0.581277 -3.33615 1.33625 -0.640724 -25.8767 1.47483 -0.144635 -5.86409 1.47482 -0.144651 85.714 -31.2602 -114.52 24.4564 26.1431 23.5325 -28.6427 -30.4382 -56.9608 -49.2493 -0.818531 -9.30555 -91.9613 -45.274 74.5803 -6.78313 16.5706 -48.6639 36.6177 -4.31781 -86.3619 7.33829 -1.85536 -24.8981 34.5663 0.229424 -10.4022 -7.16964 4.60405 4.35869 
115.975 88.801 127.179 -79.6223 -40.0441 -80.4905 -170.037 37.622 111.899 -49.0037 22.8453 0.421828 71.7718 9.54189 -1.22015 44.3354 7.447 11.0643 167.18 45.5147 67.0834 -55.1419 4.08495 1.62865 73.8257 -7.96326 -3.65364 19.9735 1.2929 8.29859 0.449232 9.29436 -90.4145 8.2866 0.714171 -0.861956 -3.38443 0.675571 -0.89255 -25.92 0.940208 -0.60747 -5.90732 0.940229 -0.607455 87.9248 -29.6864 -110.977 12.4237 28.3963 31.9615 -18.5126 -24.9208 -49.8057 -48.068 1.84883 -13.8861 -90.5218 -41.0923 75.7638 -11.726 12.9785 -50.2001 36.248 -5.30166 -88.507 5.95835 -1.65445 -25.5674 32.5474 3.24535 -11.5045 -8.49643 7.56583 6.51671 
111.735 87.6406 124.646 -82.7666 -32.2026 -84.1696 -166.87 31.313 114.723 -46.318 19.1823 0.299662 71.5265 9.27417 -2.29368 46.3502 8.65836 13.7479 167.791 50.7545 66.1073 -56.0997 0.409938 2.05823 72.496 -7.47707 -5.10259 19.945 1.4083 7.7854 0.298129 9.15097 -90.5221 8.57266 0.363821 -1.05487 -3.09869 0.317053 -1.06986 -25.6316 0.664029 -0.896773 -5.61894 0.664032 -0.89678 89.5882 -25.6982 -109.399 4.74652 25.0597 37.4192 -19.9676 -26.6435 -47.2248 -43.0085 2.26193 -16.7237 -89.2618 -37.9768 77.0569 -13.9831 9.01516 -47.8368 35.8867 -6.87962 -91.5566 4.37022 -1.39242 -26.2375 29.1262 9.18665 -6.16777 -7.03643 10.9494 5.14245 
105.504 88.0726 121.085 -84.9754 -24.8277 -88.9299 -164.798 20.3302 115.622 -36.1515 15.8853 0.750898 58.4143 0.790865 -5.07594 55.5763 14.7496 13.9824 166.963 53.4016 67.09 -56.237 -6.63191 2.99612 70.8634 -6.37717 -4.41665 23.5316 0.706506 6.18934 0.02636 8.99392 -90.3453 8.88521 -0.101096 -0.676732 -2.78589 -0.1308 -0.671627 -25.3197 0.106944 -0.675831 -5.30701 0.106959 -0.67583 88.9891 -23.1582 -111.89 0.621412 23.4981 41.4737 -22.1096 -27.6281 -49.9994 -42.3752 2.11262 -16.9045 -88.1768 -36.1669 78.4848 -12.9835 7.1724 -40.7471 33.5994 -7.70147 -92.6045 4.61988 -1.52149 -27.4751 24.7754 15.7342 0.9915 -6.20899 14.6079 4.3137 
97.4735 89.2316 116.445 -84.8545 -17.2444 -93.171 -166.357 6.04444 114.123 -21.6586 17.4852 3.63161 43.8491 -6.93677 -4.15678 51.2513 12.0623 10.4952 164.112 53.5368 71.3531 -56.0488 -10.5486 4.70853 66.1497 -2.74227 -0.359762 27.2949 -0.456006 6.80211 -0.124291 8.57859 -90.0924 9.71611 -0.289491 -0.159451 -1.95483 -0.296232 -0.146561 -24.4901 -0.228176 -0.239078 -4.47741 -0.228193 -0.239076 89.1903 -22.9706 -111.55 0.201208 23.8072 39.4575 -27.93 -31.1096 -57.3122 -44.3773 1.23265 -15.3328 -87.8461 -39.1154 79.7678 -6.83769 8.02847 -28.9116 30.6624 -8.72866 -92.4208 4.34825 -1.48603 -27.8026 18.4496 21.5481 12.0773 -5.72369 17.3753 0.528355 
89.0834 89.5556 110.877 -82.0099 -9.60862 -94.2897 -171.938 1.51772 110.765 -26.9307 22.963 9.05002 50.5577 -3.09797 4.35877 14.6689 -8.25407 0.839172 161.625 51.4926 79.4179 -58.3445 -10.1351 6.48134 70.5196 -5.42987 -1.19913 25.5599 0.115647 6.21028 0.149747 8.132 -90.2127 10.6103 0.200454 -0.439359 -1.06066 0.180935 -0.447763 -23.5956 0.323249 -0.358799 -3.58291 0.323218 -0.35881 88.3334 -24.8578 -112.433 1.04657 21.783 33.4772 -26.0018 -28.0717 -57.1488 -45.6792 1.23937 -14.3485 -87.4977 -41.2214 80.8148 -5.22049 12.6631 -20.2629 31.0613 -8.36661 -89.8616 6.7331 -1.75327 -25.1263 13.8964 25.501 20.8626 -4.46575 19.7208 -1.21394 
